<mxfile host="app.diagrams.net" modified="2023-02-22T06:50:38.564Z" agent="5.0 (Windows NT 10.0; Win64; x64) AppleWebKit/537.36 (KHTML, like Gecko) Chrome/110.0.0.0 Safari/537.36" etag="uqe3i3KaGsmAr7iOft-7" version="20.8.22" type="github">
  <diagram id="C5RBs43oDa-KdzZeNtuy" name="Page-1">
    <mxGraphModel dx="1050" dy="541" grid="1" gridSize="10" guides="1" tooltips="1" connect="1" arrows="1" fold="1" page="1" pageScale="1" pageWidth="827" pageHeight="1169" math="0" shadow="0">
      <root>
        <mxCell id="WIyWlLk6GJQsqaUBKTNV-0" />
        <mxCell id="WIyWlLk6GJQsqaUBKTNV-1" parent="WIyWlLk6GJQsqaUBKTNV-0" />
        <mxCell id="WIyWlLk6GJQsqaUBKTNV-2" value="" style="rounded=0;html=1;jettySize=auto;orthogonalLoop=1;fontSize=11;endArrow=block;endFill=0;endSize=8;strokeWidth=1;shadow=0;labelBackgroundColor=none;edgeStyle=orthogonalEdgeStyle;" parent="WIyWlLk6GJQsqaUBKTNV-1" source="WIyWlLk6GJQsqaUBKTNV-3" target="WIyWlLk6GJQsqaUBKTNV-6" edge="1">
          <mxGeometry relative="1" as="geometry" />
        </mxCell>
        <mxCell id="WIyWlLk6GJQsqaUBKTNV-3" value="Bank Accout" style="rounded=1;whiteSpace=wrap;html=1;fontSize=12;glass=0;strokeWidth=1;shadow=0;" parent="WIyWlLk6GJQsqaUBKTNV-1" vertex="1">
          <mxGeometry x="310" y="70" width="120" height="40" as="geometry" />
        </mxCell>
        <mxCell id="WIyWlLk6GJQsqaUBKTNV-6" value="&lt;font style=&quot;font-size: 8px;&quot;&gt;Initializing Global Varibales&amp;nbsp;&lt;/font&gt;" style="rhombus;whiteSpace=wrap;html=1;shadow=0;fontFamily=Helvetica;fontSize=12;align=center;strokeWidth=1;spacing=6;spacingTop=-4;" parent="WIyWlLk6GJQsqaUBKTNV-1" vertex="1">
          <mxGeometry x="320" y="160" width="100" height="80" as="geometry" />
        </mxCell>
        <mxCell id="WIyWlLk6GJQsqaUBKTNV-8" value="No" style="rounded=0;html=1;jettySize=auto;orthogonalLoop=1;fontSize=11;endArrow=block;endFill=0;endSize=8;strokeWidth=1;shadow=0;labelBackgroundColor=none;edgeStyle=orthogonalEdgeStyle;" parent="WIyWlLk6GJQsqaUBKTNV-1" source="WIyWlLk6GJQsqaUBKTNV-10" target="WIyWlLk6GJQsqaUBKTNV-11" edge="1">
          <mxGeometry x="0.3333" y="20" relative="1" as="geometry">
            <mxPoint as="offset" />
          </mxGeometry>
        </mxCell>
        <mxCell id="WIyWlLk6GJQsqaUBKTNV-10" value="&lt;font style=&quot;font-size: 10px;&quot;&gt;&lt;br&gt;Taking User Account &lt;br&gt;Information&lt;/font&gt;" style="rhombus;whiteSpace=wrap;html=1;shadow=0;fontFamily=Helvetica;fontSize=12;align=center;strokeWidth=1;spacing=6;spacingTop=-4;" parent="WIyWlLk6GJQsqaUBKTNV-1" vertex="1">
          <mxGeometry x="305" y="280" width="130" height="110" as="geometry" />
        </mxCell>
        <mxCell id="WIyWlLk6GJQsqaUBKTNV-11" value="Menu" style="rounded=1;whiteSpace=wrap;html=1;fontSize=12;glass=0;strokeWidth=1;shadow=0;" parent="WIyWlLk6GJQsqaUBKTNV-1" vertex="1">
          <mxGeometry x="310" y="430" width="120" height="40" as="geometry" />
        </mxCell>
        <mxCell id="4RQLAWbLaNMz9q7B3Osv-0" value="" style="endArrow=classic;html=1;rounded=0;fontSize=10;exitX=0.5;exitY=1;exitDx=0;exitDy=0;entryX=0.5;entryY=0;entryDx=0;entryDy=0;" edge="1" parent="WIyWlLk6GJQsqaUBKTNV-1" source="WIyWlLk6GJQsqaUBKTNV-6" target="WIyWlLk6GJQsqaUBKTNV-10">
          <mxGeometry width="50" height="50" relative="1" as="geometry">
            <mxPoint x="540" y="350" as="sourcePoint" />
            <mxPoint x="590" y="300" as="targetPoint" />
          </mxGeometry>
        </mxCell>
        <mxCell id="4RQLAWbLaNMz9q7B3Osv-1" value="Deposit" style="rounded=0;whiteSpace=wrap;html=1;fontSize=10;" vertex="1" parent="WIyWlLk6GJQsqaUBKTNV-1">
          <mxGeometry x="135" y="565" width="70" height="20" as="geometry" />
        </mxCell>
        <mxCell id="4RQLAWbLaNMz9q7B3Osv-3" value="Withdraw" style="rounded=0;whiteSpace=wrap;html=1;fontSize=10;" vertex="1" parent="WIyWlLk6GJQsqaUBKTNV-1">
          <mxGeometry x="265" y="565" width="70" height="20" as="geometry" />
        </mxCell>
        <mxCell id="4RQLAWbLaNMz9q7B3Osv-4" value="Transaction" style="rounded=0;whiteSpace=wrap;html=1;fontSize=10;" vertex="1" parent="WIyWlLk6GJQsqaUBKTNV-1">
          <mxGeometry x="395" y="565" width="70" height="20" as="geometry" />
        </mxCell>
        <mxCell id="4RQLAWbLaNMz9q7B3Osv-10" style="edgeStyle=orthogonalEdgeStyle;rounded=0;orthogonalLoop=1;jettySize=auto;html=1;exitX=0.25;exitY=0;exitDx=0;exitDy=0;fontSize=10;" edge="1" parent="WIyWlLk6GJQsqaUBKTNV-1" source="4RQLAWbLaNMz9q7B3Osv-5">
          <mxGeometry relative="1" as="geometry">
            <mxPoint x="545" y="575" as="targetPoint" />
          </mxGeometry>
        </mxCell>
        <mxCell id="4RQLAWbLaNMz9q7B3Osv-5" value="Summary" style="rounded=0;whiteSpace=wrap;html=1;fontSize=10;" vertex="1" parent="WIyWlLk6GJQsqaUBKTNV-1">
          <mxGeometry x="535" y="565" width="70" height="20" as="geometry" />
        </mxCell>
        <mxCell id="4RQLAWbLaNMz9q7B3Osv-6" value="" style="endArrow=classic;html=1;rounded=0;fontSize=10;exitX=0.5;exitY=1;exitDx=0;exitDy=0;entryX=0.5;entryY=0;entryDx=0;entryDy=0;" edge="1" parent="WIyWlLk6GJQsqaUBKTNV-1" source="WIyWlLk6GJQsqaUBKTNV-11" target="4RQLAWbLaNMz9q7B3Osv-1">
          <mxGeometry width="50" height="50" relative="1" as="geometry">
            <mxPoint x="360" y="480" as="sourcePoint" />
            <mxPoint x="410" y="430" as="targetPoint" />
          </mxGeometry>
        </mxCell>
        <mxCell id="4RQLAWbLaNMz9q7B3Osv-7" value="" style="endArrow=classic;html=1;rounded=0;fontSize=10;entryX=0.5;entryY=0;entryDx=0;entryDy=0;" edge="1" parent="WIyWlLk6GJQsqaUBKTNV-1" target="4RQLAWbLaNMz9q7B3Osv-3">
          <mxGeometry width="50" height="50" relative="1" as="geometry">
            <mxPoint x="370" y="470" as="sourcePoint" />
            <mxPoint x="185" y="520" as="targetPoint" />
          </mxGeometry>
        </mxCell>
        <mxCell id="4RQLAWbLaNMz9q7B3Osv-8" value="" style="endArrow=classic;html=1;rounded=0;fontSize=10;entryX=0.5;entryY=0;entryDx=0;entryDy=0;" edge="1" parent="WIyWlLk6GJQsqaUBKTNV-1" target="4RQLAWbLaNMz9q7B3Osv-4">
          <mxGeometry width="50" height="50" relative="1" as="geometry">
            <mxPoint x="370" y="470" as="sourcePoint" />
            <mxPoint x="335" y="520" as="targetPoint" />
          </mxGeometry>
        </mxCell>
        <mxCell id="4RQLAWbLaNMz9q7B3Osv-9" value="" style="endArrow=classic;html=1;rounded=0;fontSize=10;entryX=0.5;entryY=0;entryDx=0;entryDy=0;" edge="1" parent="WIyWlLk6GJQsqaUBKTNV-1" target="4RQLAWbLaNMz9q7B3Osv-5">
          <mxGeometry width="50" height="50" relative="1" as="geometry">
            <mxPoint x="370" y="470" as="sourcePoint" />
            <mxPoint x="475" y="520" as="targetPoint" />
          </mxGeometry>
        </mxCell>
        <mxCell id="4RQLAWbLaNMz9q7B3Osv-11" value="" style="ellipse;whiteSpace=wrap;html=1;fontSize=10;" vertex="1" parent="WIyWlLk6GJQsqaUBKTNV-1">
          <mxGeometry x="315" y="500" width="110" height="20" as="geometry" />
        </mxCell>
        <mxCell id="4RQLAWbLaNMz9q7B3Osv-13" value="Choose" style="text;html=1;strokeColor=none;fillColor=none;align=center;verticalAlign=middle;whiteSpace=wrap;rounded=0;fontSize=10;" vertex="1" parent="WIyWlLk6GJQsqaUBKTNV-1">
          <mxGeometry x="340" y="495" width="60" height="30" as="geometry" />
        </mxCell>
        <mxCell id="4RQLAWbLaNMz9q7B3Osv-15" value="" style="whiteSpace=wrap;html=1;aspect=fixed;fontSize=10;" vertex="1" parent="WIyWlLk6GJQsqaUBKTNV-1">
          <mxGeometry x="140" y="625" width="60" height="60" as="geometry" />
        </mxCell>
        <mxCell id="4RQLAWbLaNMz9q7B3Osv-16" value="" style="whiteSpace=wrap;html=1;aspect=fixed;fontSize=10;" vertex="1" parent="WIyWlLk6GJQsqaUBKTNV-1">
          <mxGeometry x="270" y="620" width="60" height="60" as="geometry" />
        </mxCell>
        <mxCell id="4RQLAWbLaNMz9q7B3Osv-17" value="" style="whiteSpace=wrap;html=1;aspect=fixed;fontSize=10;" vertex="1" parent="WIyWlLk6GJQsqaUBKTNV-1">
          <mxGeometry x="400" y="620" width="60" height="60" as="geometry" />
        </mxCell>
        <mxCell id="4RQLAWbLaNMz9q7B3Osv-18" value="" style="whiteSpace=wrap;html=1;aspect=fixed;fontSize=10;" vertex="1" parent="WIyWlLk6GJQsqaUBKTNV-1">
          <mxGeometry x="540" y="620" width="60" height="60" as="geometry" />
        </mxCell>
        <mxCell id="4RQLAWbLaNMz9q7B3Osv-19" value="" style="endArrow=classic;html=1;rounded=0;fontSize=10;exitX=0.5;exitY=1;exitDx=0;exitDy=0;entryX=0.5;entryY=0;entryDx=0;entryDy=0;" edge="1" parent="WIyWlLk6GJQsqaUBKTNV-1" source="4RQLAWbLaNMz9q7B3Osv-1" target="4RQLAWbLaNMz9q7B3Osv-15">
          <mxGeometry width="50" height="50" relative="1" as="geometry">
            <mxPoint x="360" y="740" as="sourcePoint" />
            <mxPoint x="410" y="690" as="targetPoint" />
          </mxGeometry>
        </mxCell>
        <mxCell id="4RQLAWbLaNMz9q7B3Osv-20" value="" style="endArrow=classic;html=1;rounded=0;fontSize=10;exitX=0.5;exitY=1;exitDx=0;exitDy=0;entryX=0.5;entryY=0;entryDx=0;entryDy=0;" edge="1" parent="WIyWlLk6GJQsqaUBKTNV-1">
          <mxGeometry width="50" height="50" relative="1" as="geometry">
            <mxPoint x="299.5" y="585" as="sourcePoint" />
            <mxPoint x="299.5" y="620" as="targetPoint" />
            <Array as="points">
              <mxPoint x="299.5" y="600" />
            </Array>
          </mxGeometry>
        </mxCell>
        <mxCell id="4RQLAWbLaNMz9q7B3Osv-21" value="" style="endArrow=classic;html=1;rounded=0;fontSize=10;exitX=0.5;exitY=1;exitDx=0;exitDy=0;entryX=0.5;entryY=0;entryDx=0;entryDy=0;" edge="1" parent="WIyWlLk6GJQsqaUBKTNV-1">
          <mxGeometry width="50" height="50" relative="1" as="geometry">
            <mxPoint x="429.5" y="585" as="sourcePoint" />
            <mxPoint x="429.5" y="620" as="targetPoint" />
            <Array as="points">
              <mxPoint x="429.5" y="600" />
            </Array>
          </mxGeometry>
        </mxCell>
        <mxCell id="4RQLAWbLaNMz9q7B3Osv-22" value="" style="endArrow=classic;html=1;rounded=0;fontSize=10;exitX=0.5;exitY=1;exitDx=0;exitDy=0;entryX=0.5;entryY=0;entryDx=0;entryDy=0;" edge="1" parent="WIyWlLk6GJQsqaUBKTNV-1">
          <mxGeometry width="50" height="50" relative="1" as="geometry">
            <mxPoint x="569.5" y="585" as="sourcePoint" />
            <mxPoint x="569.5" y="620" as="targetPoint" />
            <Array as="points">
              <mxPoint x="569.5" y="600" />
            </Array>
          </mxGeometry>
        </mxCell>
        <mxCell id="4RQLAWbLaNMz9q7B3Osv-23" value="Amount + Deposit Amount" style="text;html=1;strokeColor=none;fillColor=none;align=center;verticalAlign=middle;whiteSpace=wrap;rounded=0;fontSize=10;" vertex="1" parent="WIyWlLk6GJQsqaUBKTNV-1">
          <mxGeometry x="140" y="640" width="60" height="30" as="geometry" />
        </mxCell>
        <mxCell id="4RQLAWbLaNMz9q7B3Osv-24" value="Amount - Withdraw Amount" style="text;html=1;strokeColor=none;fillColor=none;align=center;verticalAlign=middle;whiteSpace=wrap;rounded=0;fontSize=10;" vertex="1" parent="WIyWlLk6GJQsqaUBKTNV-1">
          <mxGeometry x="270" y="630" width="60" height="40" as="geometry" />
        </mxCell>
        <mxCell id="4RQLAWbLaNMz9q7B3Osv-25" value="Record Transactions" style="text;html=1;strokeColor=none;fillColor=none;align=center;verticalAlign=middle;whiteSpace=wrap;rounded=0;fontSize=10;" vertex="1" parent="WIyWlLk6GJQsqaUBKTNV-1">
          <mxGeometry x="400" y="630" width="60" height="40" as="geometry" />
        </mxCell>
        <mxCell id="4RQLAWbLaNMz9q7B3Osv-26" value="Name,&amp;nbsp;&lt;br&gt;Acc No.,&lt;br&gt;Amount" style="text;html=1;strokeColor=none;fillColor=none;align=center;verticalAlign=middle;whiteSpace=wrap;rounded=0;fontSize=10;" vertex="1" parent="WIyWlLk6GJQsqaUBKTNV-1">
          <mxGeometry x="540" y="630" width="60" height="40" as="geometry" />
        </mxCell>
        <mxCell id="4RQLAWbLaNMz9q7B3Osv-27" value="" style="rounded=1;whiteSpace=wrap;html=1;fontSize=10;" vertex="1" parent="WIyWlLk6GJQsqaUBKTNV-1">
          <mxGeometry x="330" y="720" width="80" height="30" as="geometry" />
        </mxCell>
        <mxCell id="4RQLAWbLaNMz9q7B3Osv-28" value="OUTPUT" style="text;html=1;strokeColor=none;fillColor=none;align=center;verticalAlign=middle;whiteSpace=wrap;rounded=0;fontSize=10;" vertex="1" parent="WIyWlLk6GJQsqaUBKTNV-1">
          <mxGeometry x="340" y="720" width="60" height="30" as="geometry" />
        </mxCell>
        <mxCell id="4RQLAWbLaNMz9q7B3Osv-30" value="" style="endArrow=classic;html=1;rounded=0;fontSize=10;exitX=0.5;exitY=1;exitDx=0;exitDy=0;entryX=0.5;entryY=0;entryDx=0;entryDy=0;" edge="1" parent="WIyWlLk6GJQsqaUBKTNV-1" source="4RQLAWbLaNMz9q7B3Osv-15" target="4RQLAWbLaNMz9q7B3Osv-28">
          <mxGeometry width="50" height="50" relative="1" as="geometry">
            <mxPoint x="330" y="730" as="sourcePoint" />
            <mxPoint x="380" y="680" as="targetPoint" />
          </mxGeometry>
        </mxCell>
        <mxCell id="4RQLAWbLaNMz9q7B3Osv-31" value="" style="endArrow=classic;html=1;rounded=0;fontSize=10;exitX=0.5;exitY=1;exitDx=0;exitDy=0;entryX=0.5;entryY=0;entryDx=0;entryDy=0;" edge="1" parent="WIyWlLk6GJQsqaUBKTNV-1" source="4RQLAWbLaNMz9q7B3Osv-16" target="4RQLAWbLaNMz9q7B3Osv-28">
          <mxGeometry width="50" height="50" relative="1" as="geometry">
            <mxPoint x="180" y="695" as="sourcePoint" />
            <mxPoint x="380" y="730" as="targetPoint" />
          </mxGeometry>
        </mxCell>
        <mxCell id="4RQLAWbLaNMz9q7B3Osv-32" value="" style="endArrow=classic;html=1;rounded=0;fontSize=10;exitX=0.5;exitY=1;exitDx=0;exitDy=0;entryX=0.5;entryY=0;entryDx=0;entryDy=0;" edge="1" parent="WIyWlLk6GJQsqaUBKTNV-1" source="4RQLAWbLaNMz9q7B3Osv-17" target="4RQLAWbLaNMz9q7B3Osv-28">
          <mxGeometry width="50" height="50" relative="1" as="geometry">
            <mxPoint x="310" y="690" as="sourcePoint" />
            <mxPoint x="380" y="730" as="targetPoint" />
          </mxGeometry>
        </mxCell>
        <mxCell id="4RQLAWbLaNMz9q7B3Osv-33" value="" style="endArrow=classic;html=1;rounded=0;fontSize=10;exitX=0.5;exitY=1;exitDx=0;exitDy=0;entryX=0.5;entryY=0;entryDx=0;entryDy=0;" edge="1" parent="WIyWlLk6GJQsqaUBKTNV-1" source="4RQLAWbLaNMz9q7B3Osv-18" target="4RQLAWbLaNMz9q7B3Osv-28">
          <mxGeometry width="50" height="50" relative="1" as="geometry">
            <mxPoint x="440" y="690" as="sourcePoint" />
            <mxPoint x="380" y="730" as="targetPoint" />
          </mxGeometry>
        </mxCell>
        <mxCell id="4RQLAWbLaNMz9q7B3Osv-34" value="" style="endArrow=classic;html=1;rounded=0;fontSize=10;entryX=0;entryY=0.5;entryDx=0;entryDy=0;exitX=0;exitY=0.5;exitDx=0;exitDy=0;" edge="1" parent="WIyWlLk6GJQsqaUBKTNV-1" source="4RQLAWbLaNMz9q7B3Osv-27" target="WIyWlLk6GJQsqaUBKTNV-11">
          <mxGeometry width="50" height="50" relative="1" as="geometry">
            <mxPoint x="90" y="810" as="sourcePoint" />
            <mxPoint x="380" y="530" as="targetPoint" />
            <Array as="points">
              <mxPoint x="80" y="730" />
              <mxPoint x="80" y="480" />
              <mxPoint x="80" y="450" />
            </Array>
          </mxGeometry>
        </mxCell>
        <mxCell id="4RQLAWbLaNMz9q7B3Osv-36" value="If" style="text;html=1;strokeColor=none;fillColor=none;align=center;verticalAlign=middle;whiteSpace=wrap;rounded=0;fontSize=10;" vertex="1" parent="WIyWlLk6GJQsqaUBKTNV-1">
          <mxGeometry x="160" y="525" width="60" height="30" as="geometry" />
        </mxCell>
        <mxCell id="4RQLAWbLaNMz9q7B3Osv-40" value="If" style="text;html=1;strokeColor=none;fillColor=none;align=center;verticalAlign=middle;whiteSpace=wrap;rounded=0;fontSize=10;" vertex="1" parent="WIyWlLk6GJQsqaUBKTNV-1">
          <mxGeometry x="260" y="525" width="60" height="30" as="geometry" />
        </mxCell>
        <mxCell id="4RQLAWbLaNMz9q7B3Osv-42" value="If" style="text;html=1;strokeColor=none;fillColor=none;align=center;verticalAlign=middle;whiteSpace=wrap;rounded=0;fontSize=10;" vertex="1" parent="WIyWlLk6GJQsqaUBKTNV-1">
          <mxGeometry x="410" y="525" width="60" height="30" as="geometry" />
        </mxCell>
        <mxCell id="4RQLAWbLaNMz9q7B3Osv-43" value="If" style="text;html=1;strokeColor=none;fillColor=none;align=center;verticalAlign=middle;whiteSpace=wrap;rounded=0;fontSize=10;" vertex="1" parent="WIyWlLk6GJQsqaUBKTNV-1">
          <mxGeometry x="520" y="525" width="60" height="30" as="geometry" />
        </mxCell>
        <mxCell id="4RQLAWbLaNMz9q7B3Osv-44" value="Exit" style="rounded=0;whiteSpace=wrap;html=1;fontSize=10;" vertex="1" parent="WIyWlLk6GJQsqaUBKTNV-1">
          <mxGeometry x="655" y="565" width="70" height="20" as="geometry" />
        </mxCell>
        <mxCell id="4RQLAWbLaNMz9q7B3Osv-45" value="" style="endArrow=classic;html=1;rounded=0;fontSize=10;entryX=0.5;entryY=0;entryDx=0;entryDy=0;exitX=0.5;exitY=1;exitDx=0;exitDy=0;" edge="1" parent="WIyWlLk6GJQsqaUBKTNV-1" target="4RQLAWbLaNMz9q7B3Osv-44" source="WIyWlLk6GJQsqaUBKTNV-11">
          <mxGeometry width="50" height="50" relative="1" as="geometry">
            <mxPoint x="490" y="470" as="sourcePoint" />
            <mxPoint x="595" y="520" as="targetPoint" />
          </mxGeometry>
        </mxCell>
        <mxCell id="4RQLAWbLaNMz9q7B3Osv-47" value="" style="whiteSpace=wrap;html=1;aspect=fixed;fontSize=10;" vertex="1" parent="WIyWlLk6GJQsqaUBKTNV-1">
          <mxGeometry x="665" y="620" width="60" height="60" as="geometry" />
        </mxCell>
        <mxCell id="4RQLAWbLaNMz9q7B3Osv-48" value="" style="endArrow=classic;html=1;rounded=0;fontSize=10;exitX=0.5;exitY=1;exitDx=0;exitDy=0;entryX=0.5;entryY=0;entryDx=0;entryDy=0;" edge="1" parent="WIyWlLk6GJQsqaUBKTNV-1">
          <mxGeometry width="50" height="50" relative="1" as="geometry">
            <mxPoint x="694.5" y="585" as="sourcePoint" />
            <mxPoint x="694.5" y="620" as="targetPoint" />
            <Array as="points">
              <mxPoint x="694.5" y="600" />
            </Array>
          </mxGeometry>
        </mxCell>
        <mxCell id="4RQLAWbLaNMz9q7B3Osv-49" value="END" style="text;html=1;strokeColor=none;fillColor=none;align=center;verticalAlign=middle;whiteSpace=wrap;rounded=0;fontSize=10;" vertex="1" parent="WIyWlLk6GJQsqaUBKTNV-1">
          <mxGeometry x="665" y="630" width="60" height="40" as="geometry" />
        </mxCell>
        <mxCell id="4RQLAWbLaNMz9q7B3Osv-53" value="If" style="text;html=1;strokeColor=none;fillColor=none;align=center;verticalAlign=middle;whiteSpace=wrap;rounded=0;fontSize=10;" vertex="1" parent="WIyWlLk6GJQsqaUBKTNV-1">
          <mxGeometry x="640" y="525" width="60" height="30" as="geometry" />
        </mxCell>
      </root>
    </mxGraphModel>
  </diagram>
</mxfile>
